<svg id="Layer_1" data-name="Layer 1" xmlns="http://www.w3.org/2000/svg" viewBox="0 0 27.26 27.26"><defs><style>.cls-1{fill:none;stroke:#e56627;stroke-linecap:round;stroke-linejoin:round;stroke-width:0.5px;}</style></defs><path class="cls-1" d="M10.4,12.84a4.14,4.14,0,0,0-2.93-1.07,4.71,4.71,0,0,0-3.33,1.37,4.65,4.65,0,0,0-1.38,3.32H8.45"/><path class="cls-1" d="M16.85,12.87a4.15,4.15,0,0,1,2.94-1.1,4.69,4.69,0,0,1,4.71,4.69H20.9"/><path class="cls-1" d="M18.57,15a5.45,5.45,0,0,0-2-2.4,5.17,5.17,0,0,0-8.09,4.24h7"/><path class="cls-1" d="M21.81,8.69a2.28,2.28,0,1,1-2.27-2.27A2.27,2.27,0,0,1,21.81,8.69Z"/><path class="cls-1" d="M16.26,8.38A2.59,2.59,0,1,1,13.68,5.8,2.57,2.57,0,0,1,16.26,8.38Z"/><path class="cls-1" d="M21.46,18.32a3.15,3.15,0,1,1-3.15-3.14A3.15,3.15,0,0,1,21.46,18.32Z"/><path class="cls-1" d="M18.31,16.07v4.51"/><path class="cls-1" d="M16.06,18.32h4.51"/><path class="cls-1" d="M10.09,8.69A2.27,2.27,0,1,1,7.82,6.42,2.27,2.27,0,0,1,10.09,8.69Z"/></svg>