<svg id="Layer_1" data-name="Layer 1" xmlns="http://www.w3.org/2000/svg" viewBox="0 0 27.26 27.26"><defs><style>.cls-1{fill:none;stroke:#e56627;stroke-linecap:round;stroke-linejoin:round;stroke-width:0.5px;}</style></defs><path class="cls-1" d="M5.41,14.21,9.46,8,7.27,6.53l-4,6.27Z"/><path class="cls-1" d="M9.33,8.79l.83.7A4.16,4.16,0,0,1,13.55,9l4,1.47a.79.79,0,0,1,.29.18.85.85,0,0,1,.28.6.78.78,0,0,1-.05.34h0a.92.92,0,0,1-.17.29,1,1,0,0,1-.28.2.73.73,0,0,1-.33.08.74.74,0,0,1-.33-.05l-2.43-.86a2.48,2.48,0,0,1-1.27,1.4,2.5,2.5,0,0,1-.93.23,2.61,2.61,0,0,1-1-.15"/><path class="cls-1" d="M6.34,13.46l1.35,1.3"/><path class="cls-1" d="M24,12.92,20,6.65,17.8,8.07l4,6.26Z"/><path class="cls-1" d="M11.12,13.78,8.44,15.54a.91.91,0,0,0-.37.55.87.87,0,0,0,.11.65h0a1.14,1.14,0,0,0,.24.25.93.93,0,0,0,.31.13.83.83,0,0,0,.35,0A.85.85,0,0,0,9.39,17l3.71-2.4"/><path class="cls-1" d="M13.1,14.61,7.94,18a.88.88,0,0,0-.26,1.21h0a.87.87,0,0,0,.55.38.91.91,0,0,0,.66-.12l5.16-3.34"/><path class="cls-1" d="M14.05,16.08l-4.69,3a1.14,1.14,0,0,0-.25.24.87.87,0,0,0-.14.31A1,1,0,0,0,9,20a.71.71,0,0,0,.13.31h0a.84.84,0,0,0,.55.38.86.86,0,0,0,.66-.12l4.69-3"/><path class="cls-1" d="M21.15,13.78l-1.37.91s-.24,1.92-1.17,2.52l-5,3.32a.88.88,0,0,1-.32.12.78.78,0,0,1-.34,0,.73.73,0,0,1-.31-.14.78.78,0,0,1-.24-.24h0a.9.9,0,0,1-.12-.66.93.93,0,0,1,.38-.55L15,17.55"/></svg>