<svg id="Layer_1" data-name="Layer 1" xmlns="http://www.w3.org/2000/svg" viewBox="0 0 27.26 27.26"><defs><style>.cls-1{fill:none;stroke:#e56627;stroke-linecap:round;stroke-linejoin:round;stroke-width:0.5px;}</style></defs><path class="cls-1" d="M13.9,6.14c3.27,0,5.92-.53,5.92-1.18S17.17,3.77,13.9,3.77,8,4.3,8,5,10.63,6.14,13.9,6.14Z"/><path class="cls-1" d="M13.9,11.09c2.6,0,4.71-.53,4.71-1.18S16.5,8.72,13.9,8.72s-4.72.53-4.72,1.19S11.29,11.09,13.9,11.09Z"/><path class="cls-1" d="M13.9,19.65c1.94,0,3.51-.53,3.51-1.19s-1.57-1.18-3.51-1.18-3.52.53-3.52,1.18S12,19.65,13.9,19.65Z"/><path class="cls-1" d="M8,5l2.4,13.5"/><path class="cls-1" d="M19.82,5l-2.41,13.5"/><path class="cls-1" d="M23.31,21.37v.35a.64.64,0,0,1,0,.24.77.77,0,0,1-.14.21.6.6,0,0,1-.21.14.69.69,0,0,1-.24.05h-9.9a1.29,1.29,0,0,0-.48.1l-1.93.85a2.26,2.26,0,0,1-.85.17H4.75a.82.82,0,0,1-.81-.82v-.81H9.48a2.09,2.09,0,0,0,.85-.18l1.93-.84a1.33,1.33,0,0,1,.48-.1h9.94a.65.65,0,0,1,.45.19A.67.67,0,0,1,23.31,21.37Z"/><path class="cls-1" d="M4,21.85V19.56a.63.63,0,0,1,.17-.43A.64.64,0,0,1,4.55,19h0a.64.64,0,0,1,.43.18.63.63,0,0,1,.17.43v2.29Z"/><path class="cls-1" d="M5.16,21.85V19.56a.63.63,0,0,1,.17-.43.6.6,0,0,1,.86,0,.63.63,0,0,1,.17.43v2.29Z"/><path class="cls-1" d="M6.37,21.85V19.56A.61.61,0,0,1,7,19H7a.64.64,0,0,1,.43.18.63.63,0,0,1,.17.43v2.29Z"/><path class="cls-1" d="M7.58,21.85V19.56a.61.61,0,0,1,.6-.61.62.62,0,0,1,.43.18.64.64,0,0,1,.18.43v2.29Z"/></svg>